<?xml version="1.0" standalone="no"?>
<!DOCTYPE svg PUBLIC "-//W3C//DTD SVG 20010904//EN"
 "http://www.w3.org/TR/2001/REC-SVG-20010904/DTD/svg10.dtd">
<svg version="1.0" xmlns="http://www.w3.org/2000/svg"
 width="204.000000pt" height="248.000000pt" viewBox="0 0 204.000000 248.000000"
 preserveAspectRatio="xMidYMid meet">

<g transform="translate(0.000000,248.000000) scale(0.100000,-0.100000)"
fill="#000000" stroke="none">
<path d="M795 1784 c-121 -372 -221 -683 -223 -690 -3 -12 24 -14 169 -12
l173 3 52 160 c30 92 54 154 58 145 3 -8 28 -80 54 -160 l49 -145 172 -3 c144
-2 172 0 169 12 -11 47 -444 1366 -448 1366 -3 0 -104 -304 -225 -676z"/>
<path d="M46 1041 c21 -16 185 -135 364 -265 l325 -237 52 158 c29 87 51 163
49 169 -3 7 -64 55 -136 108 l-132 96 -281 0 -281 0 40 -29z"/>
<path d="M1339 973 c-74 -53 -136 -98 -138 -99 -2 -2 20 -76 49 -164 28 -89
50 -164 48 -166 -3 -2 -65 42 -140 97 l-137 100 -140 -102 -141 -102 -85 -260
c-47 -143 -84 -262 -82 -263 2 -2 323 228 713 512 390 284 718 522 729 530 17
12 -18 14 -262 14 l-281 0 -133 -97z"/>
</g>
</svg>
